<?xml version="1.0" encoding="UTF-8"?>
<svg width="17px" height="17px" viewBox="0 0 17 17" version="1.1" xmlns="http://www.w3.org/2000/svg" xmlns:xlink="http://www.w3.org/1999/xlink">
    <title>Fill 1</title>
    <g id="Branding-Types" stroke="none" stroke-width="1" fill="none" fill-rule="evenodd">
        <path d="M9.445312,3.32813 C8.539058,4.25 7.746097,5.03515 7.066406,5.68359 C6.386715,6.33203 6.03125,6.65625 6,6.65625 C5.96875,6.65625 5.734377,6.4961 5.296875,6.17578 C4.859373,5.85547 4.351565,5.46875 3.773438,5.01563 L1.6875,3.375 L0,4.24219 L0,12.726562 L1.6875,13.570312 L3.632812,12.070312 C4.164065,11.648435 4.644529,11.273439 5.074219,10.945312 C5.503908,10.617186 5.75,10.4375 5.8125,10.40625 C5.937501,10.328125 6.179686,10.449217 6.539062,10.769531 C6.898439,11.089845 7.86718,12.031242 9.445312,13.59375 L12.79688,16.96875 L14.85938,16.125 L16.92188,15.304688 L16.92188,1.66406 L15.35156,1.03125 C14.91406,0.85937 14.49219,0.69141 14.08594,0.52734 C13.67969,0.36328 13.40625,0.25781 13.26562,0.21094 L12.77344,0 L9.445312,3.32813 Z M12.75,8.484375 C12.75,9.42188 12.74219,10.222653 12.72656,10.886719 C12.71094,11.550785 12.6875,11.882812 12.65625,11.882812 C12.625,11.882812 12.38281,11.707033 11.92969,11.355469 C11.47656,11.003904 10.98828,10.61719 10.46484,10.195312 C9.941404,9.773435 9.464846,9.382814 9.035156,9.023438 C8.605467,8.664061 8.398437,8.46875 8.414062,8.4375 C8.414062,8.40625 8.628904,8.214846 9.058594,7.863281 C9.488283,7.511717 9.964841,7.128908 10.48828,6.71484 C11.01172,6.30078 11.49609,5.92578 11.94141,5.58984 C12.38672,5.2539 12.625,5.08594 12.65625,5.08594 C12.6875,5.08594 12.71094,5.41797 12.72656,6.08203 C12.74219,6.7461 12.75,7.54687 12.75,8.484375 Z M3.09375,7.265625 L4.3125,8.484375 L3.09375,9.703125 C2.749998,10.031252 2.453126,10.312499 2.203125,10.54687 C1.953124,10.781251 1.8125,10.898438 1.78125,10.898438 C1.75,10.898438 1.726563,10.664065 1.710938,10.195312 C1.695312,9.72656 1.6875,9.156253 1.6875,8.484375 C1.6875,7.812497 1.695312,7.238284 1.710938,6.76172 C1.726563,6.28515 1.75,6.04687 1.78125,6.04687 C1.8125,6.04687 1.953124,6.16797 2.203125,6.41016 C2.453126,6.65234 2.749998,6.9375 3.09375,7.265625 Z" id="Fill-1" fill="#000000"></path>
    </g>
</svg>