<?xml version="1.0" encoding="UTF-8"?>
<svg width="22px" height="14px" viewBox="0 0 22 14" version="1.1" xmlns="http://www.w3.org/2000/svg" xmlns:xlink="http://www.w3.org/1999/xlink">
    <title>icon-teamwork</title>
    <g id="Branding-Types" stroke="none" stroke-width="1" fill="none" fill-rule="evenodd">
        <path d="M9.984375,3 C9.984375,3.82813 9.691409,4.535156 9.105469,5.121096 C8.519528,5.707037 7.812504,6 6.984375,6 C6.156246,6 5.449222,5.707037 4.863281,5.121096 C4.277341,4.535156 3.984375,3.82813 3.984375,3 C3.984375,2.17187 4.277341,1.46485 4.863281,0.87891 C5.449222,0.29297 6.156246,0 6.984375,0 C7.812504,0 8.519528,0.29297 9.105469,0.87891 C9.691409,1.46485 9.984375,2.17187 9.984375,3 Z M18,3 C18,3.82813 17.70703,4.535156 17.12109,5.121096 C16.53515,5.707037 15.82813,6 15,6 C14.17187,6 13.46485,5.707037 12.87891,5.121096 C12.29297,4.535156 12,3.82813 12,3 C12,2.17187 12.29297,1.46485 12.87891,0.87891 C13.46485,0.29297 14.17187,0 15,0 C15.82813,0 16.53515,0.29297 17.12109,0.87891 C17.70703,1.46485 18,2.17187 18,3 Z M15,6.984378 C15.96875,6.984378 16.875,7.144532 17.71875,7.464846 C18.5625,7.78516 19.30078,8.249999 19.93359,8.859378 C20.56641,9.468756 21.0664,10.203123 21.43359,11.062502 C21.80078,11.921882 21.98438,12.898435 21.98438,13.99219 L15,13.99219 C15,12.648433 14.73047,11.425789 14.19141,10.324221 C13.65234,9.222653 12.91407,8.312506 11.97656,7.593752 C12.42969,7.406252 12.91015,7.257816 13.41797,7.14844 C13.92578,7.039064 14.45312,6.984378 15,6.984378 Z M10.99219,8.109378 C11.89844,8.70313 12.625,9.496091 13.17188,10.488284 C13.71875,11.480476 13.99219,12.648433 13.99219,13.99219 L0,13.99219 C0,12.898435 0.1835919,11.921882 0.5507812,11.062502 C0.9179706,10.203123 1.417966,9.468756 2.050781,8.859378 C2.683597,8.249999 3.421871,7.78516 4.265625,7.464846 C5.109379,7.144532 6.01562,6.984378 6.984375,6.984378 C7.734379,6.984378 8.449215,7.082033 9.128906,7.277346 C9.808597,7.47266 10.42968,7.750001 10.99219,8.109378 Z" id="icon-teamwork" fill="#000000"></path>
    </g>
</svg>