<svg xmlns="http://www.w3.org/2000/svg" width="30" height="30" viewBox="0 0 30 30">
    <g fill="none" fill-rule="evenodd">
        <g>
            <g>
                <g>
                    <path d="M0 0H30V30H0z" transform="translate(-1164 -1757) translate(120 1304) translate(1044 453)"/>
                    <g fill="#44D7B6">
                        <path d="M19.37.21c.732-.048 1.432.342 1.832 1.02.505.859.938 1.766 1.293 2.712 1.401 4.158 2.727 8.358 4.123 12.516.818 2.4 1.773 4.8 2.667 7.2.078.147.131.307.159.474 0 .27.027.648-.11.78-.228.107-.49.08-.698-.072-.834-.726-1.636-1.506-2.432-2.268-.459-.42-.9-.876-1.391-1.242-.933-.8-2.248-.773-3.153.066-.8.742-1.553 1.544-2.253 2.4-1.09 1.2-2.045 2.58-3.207 3.696-.858.72-1.792 1.325-2.782 1.8-.496.276-.845.036-1.09-.57-.6-1.722-1.266-3.318-1.964-4.932-.235-.526-.515-1.026-.835-1.494-.747-1.14-1.118-1.2-2.307-.666-.296.107-.62.07-.89-.102-1.925-1.476-3.817-3-5.732-4.512-.605-.486-.545-.918.18-1.248 2.41-1.098 4.833-2.178 7.238-3.3.321-.146.603-.379.818-.678.96-1.507 2.306-2.664 3.868-3.324.692-.328 1.288-.86 1.723-1.536 1.015-1.446 1.898-3 2.848-4.5.331-.574.709-1.114 1.129-1.614.29-.258.616-.462.965-.606zm8.225 22.164c-.11-.318-.148-.432-.18-.54-1.233-3.642-2.428-7.284-3.66-10.914-.866-2.56-1.755-5.11-2.668-7.65-.177-.475-.41-.923-.692-1.332-.506-.76-.991-.76-1.457 0-.215.38-.398.782-.545 1.2-.808 2.082-1.544 4.2-2.411 6.258-1.702 4.02-3.551 7.938-6.758 10.8v.096c2.22 2.058 2.912 5.064 4.129 7.878.584-.315 1.142-.685 1.669-1.104.927-.9 1.8-1.878 2.662-2.856.987-1.122 1.87-2.364 2.929-3.396 1.652-1.614 3.469-1.614 5.242-.114.556.474 1.063 1.02 1.74 1.674zM1.756 16.548c1.675 1.32 3.224 2.538 4.757 3.78.248.217.605.194.829-.054 1.415-1.012 2.671-2.27 3.72-3.726.202-.276.382-.57.589-.876l-.862-.714c-.644-.522-1.249-1.374-1.936-1.464-.688-.09-1.522.534-2.275.87-1.57.702-3.136 1.416-4.822 2.184zm7.85-3.948l2.7 2.226 3.48-7.446-.186-.114c-.136.18-.273.36-.415.534-.575.84-1.356 1.484-2.252 1.854-1.451.438-2.39 1.578-3.328 2.946z" transform="translate(-1164 -1757) translate(120 1304) translate(1044 453)"/>
                        <path d="M23.182 18.6c-1.827.108-3.131 1.2-4.282 2.586-1.036 1.242-2.018 2.538-3.07 3.756-.59.678-1.277 1.248-1.986 1.932L12 22.392c.027-.042.044-.102.076-.114 1.953-.654 3.06-2.166 3.704-4.248 1.43-4.794 2.602-9.677 3.513-14.622.065-.324.158-.636.245-.996.47.444 3.464 13.848 3.644 16.188z" transform="translate(-1164 -1757) translate(120 1304) translate(1044 453)"/>
                    </g>
                </g>
            </g>
        </g>
    </g>
</svg>
