<svg xmlns="http://www.w3.org/2000/svg" width="30" height="30" viewBox="0 0 30 30">
    <g fill="none" fill-rule="evenodd">
        <g>
            <g>
                <g>
                    <path d="M0 0H30V30H0z" transform="translate(-552 -1926) translate(120 1304) translate(432 622)"/>
                    <path fill="#44D7B6" d="M16.745 5.884c-1.607 1.63-3.012 3.018-4.217 4.164-1.205 1.147-1.835 1.72-1.89 1.72-.056 0-.472-.283-1.247-.85-.776-.566-1.676-1.25-2.701-2.05L2.992 5.966 0 7.5v15l2.992 1.492L6.44 21.34c.942-.746 1.794-1.41 2.556-1.99.762-.58 1.198-.897 1.309-.952.221-.138.65.076 1.288.642.637.566 2.354 2.23 5.152 4.993L22.687 30l3.656-1.492L30 27.058V2.942l-2.784-1.119c-.776-.304-1.523-.6-2.244-.89-.72-.29-1.205-.477-1.454-.56L22.645 0l-5.9 5.884zM22.604 15c0 1.657-.014 3.073-.042 4.247-.027 1.174-.069 1.761-.124 1.761-.056 0-.485-.31-1.288-.932-.804-.622-1.67-1.305-2.597-2.051-.928-.746-1.773-1.437-2.535-2.072-.762-.635-1.129-.98-1.101-1.036 0-.055.38-.394 1.143-1.015.761-.622 1.606-1.298 2.534-2.03.928-.732 1.787-1.395 2.576-1.99.79-.593 1.212-.89 1.268-.89.055 0 .097.587.124 1.76.028 1.175.042 2.59.042 4.248zm-17.12-2.155L7.646 15l-2.16 2.155c-.61.58-1.136 1.077-1.58 1.491-.442.415-.692.622-.747.622-.056 0-.097-.414-.125-1.243-.027-.829-.041-1.837-.041-3.025s.014-2.203.041-3.046c.028-.842.07-1.263.125-1.263.055 0 .305.214.748.642.443.428.97.932 1.579 1.512z" transform="translate(-552 -1926) translate(120 1304) translate(432 622)"/>
                </g>
            </g>
        </g>
    </g>
</svg>
