<?xml version="1.0" encoding="UTF-8"?>
<svg width="21px" height="20px" viewBox="0 0 21 20" version="1.1" xmlns="http://www.w3.org/2000/svg" xmlns:xlink="http://www.w3.org/1999/xlink">
    <title>icon-python</title>
    <g id="Branding-Types" stroke="none" stroke-width="1" fill="none" fill-rule="evenodd">
        <path d="M17.15625,4.99219 C17.9375,4.99219 18.60937,5.26953 19.17188,5.82422 C19.73438,6.37891 20.015625,7.05469 20.015625,7.85157 L20.015625,11.625002 C20.015625,12.421881 19.73438,13.097656 19.17188,13.652346 C18.60937,14.207037 17.9375,14.484378 17.15625,14.484378 L10.00781,14.484378 C10.00781,14.687504 10.07812,14.898439 10.21875,15.11719 C10.35938,15.335941 10.52344,15.445315 10.71094,15.445315 L15,15.445315 L15,17.132815 C15,17.929694 14.72266,18.605468 14.16797,19.1601588 C13.61328,19.714849 12.9375,19.99219 12.14062,19.99219 L7.875,19.99219 C7.078121,19.99219 6.402347,19.714849 5.847656,19.1601588 C5.292966,18.605468 5.015625,17.929694 5.015625,17.132815 L5.015625,13.382815 C5.015625,12.585936 5.292966,11.910162 5.847656,11.355471 C6.402347,10.800781 7.078121,10.52344 7.875,10.52344 L13.125,10.52344 C13.90625,10.52344 14.57422,10.246099 15.12891,9.69141 C15.6836,9.13672 15.96094,8.46094 15.96094,7.66407 L15.96094,4.99219 L17.15625,4.99219 Z M12.86719,16.781252 C12.66406,16.781252 12.49219,16.855471 12.35156,17.003909 C12.21094,17.152347 12.14062,17.375001 12.14062,17.671878 C12.14062,17.968754 12.21094,18.160158 12.35156,18.246096 C12.49219,18.332034 12.66406,18.375002 12.86719,18.375002 C13.07031,18.375002 13.23828,18.308597 13.37109,18.175784 C13.50391,18.042971 13.57031,17.875004 13.57031,17.671878 C13.57031,17.375001 13.50391,17.152347 13.37109,17.003909 C13.23828,16.855471 13.07031,16.781252 12.86719,16.781252 Z M2.859375,15 C2.078121,15 1.406253,14.718755 0.84375,14.156252 C0.2812472,13.59375 0,12.921881 0,12.140628 L0,8.34375 C0,7.5625 0.2812472,6.89063 0.84375,6.32813 C1.406253,5.76562 2.078121,5.48438 2.859375,5.48438 L10.00781,5.48438 C10.00781,5.29688 9.937501,5.08985 9.796875,4.86328 C9.656249,4.63672 9.492188,4.52344 9.304688,4.52344 L5.015625,4.52344 L5.015625,2.85938 C5.015625,2.0625 5.292966,1.38672 5.847656,0.83203 C6.402347,0.27734 7.078121,0 7.875,0 L12.14062,0 C12.9375,0 13.61328,0.27734 14.16797,0.83203 C14.72266,1.38672 15,2.0625 15,2.85938 L15,6.60938 C15,7.39063 14.72266,8.05859 14.16797,8.61328 C13.61328,9.16797 12.9375,9.44531 12.14062,9.44531 L6.890625,9.44531 C6.109371,9.44531 5.441409,9.72656 4.886719,10.289065 C4.332028,10.851568 4.054688,11.523436 4.054688,12.30469 L4.054688,15 L2.859375,15 Z M7.148438,3.21094 C7.351564,3.21094 7.523437,3.13672 7.664062,2.98828 C7.804688,2.83985 7.875,2.61719 7.875,2.32031 C7.875,2.02344 7.804688,1.82813 7.664062,1.73438 C7.523437,1.64063 7.351564,1.59375 7.148438,1.59375 C6.945312,1.59375 6.777344,1.64063 6.644531,1.73438 C6.511718,1.82813 6.445312,2.02344 6.445312,2.32031 C6.445312,2.61719 6.511718,2.83985 6.644531,2.98828 C6.777344,3.13672 6.945312,3.21094 7.148438,3.21094 Z" id="icon-python" fill="#000000"></path>
    </g>
</svg>