<?xml version="1.0" encoding="UTF-8"?>
<svg width="20px" height="19px" viewBox="0 0 20 19" version="1.1" xmlns="http://www.w3.org/2000/svg" xmlns:xlink="http://www.w3.org/1999/xlink">
    <title>icon-webdev</title>
    <g id="Branding-Types" stroke="none" stroke-width="1" fill="none" fill-rule="evenodd">
        <g id="icon-webdev" fill="#000000">
            <path d="M7.99765883,10 L5,7 L7.99765883,4 L8.70023512,4.703125 L6.40515258,7 L8.70023512,9.308594 L7.99765883,10 Z M11.2997699,9.308594 L13.5948474,7 L11.2997699,4.703125 L12.0023412,4 L15,7 L12.0023412,10 L11.2997699,9.308594 Z" id="Fill-1-Copy"></path>
            <path d="M2,13 L18,13 L18,2 L2,2 L2,13 Z M11,15 L11,17 L15,17 L15,19 L5,19 L5,17 L9,17 L9,15 L1,15 C0.719999,15 0.483334,14.900001 0.29,14.7 C0.096666,14.5 0,14.266668 0,14 L0,1 C0,0.73333 0.096666,0.5 0.29,0.3 C0.483334,0.1 0.719999,0 1,0 L19,0 C19.28,0 19.51667,0.09667 19.71,0.29 C19.90333,0.48333 20,0.72 20,1 L20,14 C20,14.266668 19.90333,14.5 19.71,14.7 C19.51667,14.900001 19.28,15 19,15 L11,15 Z" id="Fill-1"></path>
        </g>
    </g>
</svg>