<svg xmlns="http://www.w3.org/2000/svg" viewBox="0 0 55.51 61"><defs><style>.cls-1{fill:#fff;}</style></defs><g id="Layer_2" data-name="Layer 2"><g id="Layer_1-2" data-name="Layer 1"><path d="M27.3,0h1.21a17.26,17.26,0,0,1,2.07.85q11,6.2,22,12.45a4.9,4.9,0,0,1,2.65,4.47c0,8.23,0,16.47,0,24.7a5.48,5.48,0,0,1-3.06,5.17q-10.69,6-21.37,12.08a5.53,5.53,0,0,1-5.87,0Q14.25,53.66,3.49,47.6a5.49,5.49,0,0,1-3-5.05c0-8,0-16,0-24a5.93,5.93,0,0,1,3.4-5.62C7.34,11,10.77,8.93,14.26,7,18.59,4.64,23,2.33,27.3,0ZM40.19,39.83c-1.35-.8-2.73-1.53-4-2.4a1.92,1.92,0,0,0-2.72.17A8.87,8.87,0,0,1,22.85,38a9.16,9.16,0,0,1-3.8-10,9,9,0,0,1,8.1-6.88,9.6,9.6,0,0,1,7.56,2.89l5.51-3.22c-3.35-5.08-10.66-7.49-16.79-5.61a15.77,15.77,0,0,0,.35,30.28C30,47.2,37.21,44.72,40.19,39.83Zm5.9-5.5.2,2.51h2.43l.14-2.51,2.38-.15V31.71l-2.34-.14V29.14L51.21,29V26.5l-2.36-.14-.12-2.46h-2.5l-.13,2.45H43.64l-.18-2.47H41l-.13,2.5-2.36.13V29l2.36.18v2.3c-2.81.41-2.81.42-2.26,2.73l2.25.13L41,36.82h2.44l.19-2.49Z"/><path class="cls-1" d="M27.3,0c-4.35,2.33-8.71,4.64-13,7-3.49,1.92-6.92,4-10.43,5.87A5.93,5.93,0,0,0,.43,18.5c0,8,0,16,0,24a5.49,5.49,0,0,0,3,5.05Q14.25,53.66,25,59.76a5.53,5.53,0,0,0,5.87,0q10.67-6.06,21.37-12.08a5.48,5.48,0,0,0,3.06-5.17c0-8.23,0-16.47,0-24.7a4.9,4.9,0,0,0-2.65-4.47Q41.63,7,30.58.85A17.26,17.26,0,0,0,28.51,0h27V61H0V0Z"/><path class="cls-1" d="M40.19,39.83c-3,4.89-10.19,7.37-16.41,5.7a15.77,15.77,0,0,1-.35-30.28c6.13-1.88,13.44.53,16.79,5.61l-5.51,3.22a9.6,9.6,0,0,0-7.56-2.89,9,9,0,0,0-8.1,6.88,9.16,9.16,0,0,0,3.8,10,8.87,8.87,0,0,0,10.59-.42,1.92,1.92,0,0,1,2.72-.17C37.46,38.3,38.84,39,40.19,39.83Z"/><path class="cls-1" d="M46.09,34.33H43.66l-.19,2.49H41l-.16-2.49-2.25-.13c-.55-2.31-.55-2.32,2.26-2.73v-2.3L38.52,29V26.51l2.36-.13.13-2.5h2.45l.18,2.47H46.1l.13-2.45h2.5l.12,2.46,2.36.14V29l-2.31.15v2.43l2.34.14v2.47l-2.38.15-.14,2.51H46.29Zm-2.43-5.19v2.39h2.41V29.14Z"/><path d="M43.66,29.14h2.41v2.39H43.66Z"/></g></g></svg>