<?xml version="1.0" encoding="UTF-8"?>
<svg width="18px" height="18px" viewBox="0 0 18 18" version="1.1" xmlns="http://www.w3.org/2000/svg" xmlns:xlink="http://www.w3.org/1999/xlink">
    <title>icon-javascript</title>
    <g id="Branding-Types" stroke="none" stroke-width="1" fill="none" fill-rule="evenodd">
        <path d="M0,0 L18,0 L18,18 L0,18 L0,0 Z M4.734375,15.046875 C4.937501,15.468752 5.242185,15.83203 5.648438,16.136719 C6.05469,16.441408 6.593747,16.59375 7.265625,16.59375 C8.015629,16.59375 8.624998,16.386721 9.09375,15.972656 C9.562502,15.558592 9.796875,14.914067 9.796875,14.039062 L9.796875,8.273438 L8.109375,8.273438 L8.109375,14.015625 C8.109375,14.437502 8.027345,14.722656 7.863281,14.871094 C7.699218,15.019532 7.476564,15.09375 7.195312,15.09375 C6.914061,15.09375 6.695313,15.007813 6.539062,14.835938 C6.382812,14.664062 6.242188,14.460939 6.117188,14.226562 L4.734375,15.046875 Z M10.71094,14.859375 C10.96094,15.359377 11.33984,15.773436 11.84766,16.101562 C12.35547,16.429689 13.00781,16.59375 13.80469,16.59375 C14.60157,16.59375 15.26562,16.390627 15.79688,15.984375 C16.32813,15.578123 16.59375,14.992191 16.59375,14.226562 C16.59375,13.523434 16.39844,12.984377 16.00781,12.609375 C15.61719,12.234373 15.0625,11.890627 14.34375,11.578125 L13.92188,11.390625 C13.5625,11.234374 13.30078,11.089844 13.13672,10.957031 C12.97266,10.824218 12.89062,10.632814 12.89062,10.382812 C12.89062,10.179688 12.96094,10.007813 13.10156,9.867188 C13.24219,9.726562 13.4375,9.65625 13.6875,9.65625 C13.9375,9.65625 14.14844,9.710937 14.32031,9.820312 C14.49219,9.929688 14.64844,10.117186 14.78906,10.382812 L16.10156,9.515625 C15.82031,9.031248 15.48438,8.687501 15.09375,8.484375 C14.70312,8.281249 14.23438,8.179688 13.6875,8.179688 C12.9375,8.179688 12.33985,8.390623 11.89453,8.8125 C11.44922,9.234377 11.22656,9.765622 11.22656,10.40625 C11.22656,11.093753 11.41015,11.624998 11.77734,12 C12.14453,12.375002 12.63281,12.695311 13.24219,12.960938 L13.66406,13.148438 C14.05469,13.304688 14.35937,13.457031 14.57812,13.605469 C14.79688,13.753907 14.90625,13.976561 14.90625,14.273438 C14.90625,14.507814 14.80078,14.703124 14.58984,14.859375 C14.37891,15.015626 14.10156,15.09375 13.75781,15.09375 C13.33594,15.09375 12.9961,14.996095 12.73828,14.800781 C12.48047,14.605468 12.26563,14.359376 12.09375,14.0625 L10.71094,14.859375 Z" id="icon-javascript" fill="#000000"></path>
    </g>
</svg>