<?xml version="1.0" encoding="UTF-8"?>
<svg width="24px" height="13px" viewBox="0 0 24 13" version="1.1" xmlns="http://www.w3.org/2000/svg" xmlns:xlink="http://www.w3.org/1999/xlink">
    <title>icon-php</title>
    <g id="Branding-Types" stroke="none" stroke-width="1" fill="none" fill-rule="evenodd">
        <path d="M12,12.16406 C10.34374,12.16406 8.785164,12.0039054 7.324219,11.6835912 C5.863274,11.3632771 4.589849,10.929688 3.503906,10.38281 C2.417963,9.835932 1.562503,9.191407 0.9375,8.449216 C0.3124969,7.707025 0,6.914064 0,6.07031 C0,5.242181 0.3124969,4.457032 0.9375,3.714841 C1.562503,2.97265 2.417963,2.328125 3.503906,1.78125 C4.589849,1.23437 5.863274,0.80078 7.324219,0.48047 C8.785164,0.16015 10.34374,0 12,0 C13.65626,0 15.21484,0.16015 16.67578,0.48047 C18.13673,0.80078 19.41015,1.23437 20.49609,1.78125 C21.58204,2.328125 22.4375,2.97265 23.0625,3.714841 C23.6875,4.457032 24,5.242181 24,6.07031 C24,6.914064 23.6875,7.707025 23.0625,8.449216 C22.4375,9.191407 21.58204,9.835932 20.49609,10.38281 C19.41015,10.929688 18.13673,11.3632771 16.67578,11.6835912 C15.21484,12.0039054 13.65626,12.16406 12,12.16406 Z M6.820312,4.218748 C7.085939,4.218748 7.308593,4.242185 7.488281,4.28906 C7.66797,4.335935 7.804687,4.414059 7.898438,4.523435 C7.992188,4.617185 8.046875,4.753903 8.0625,4.933591 C8.078125,5.11328 8.07031259,5.320309 8.039062,5.554685 C7.976562,5.820311 7.898438,6.039059 7.804688,6.210935 C7.710937,6.382811 7.593751,6.523434 7.453125,6.63281 C7.312499,6.742186 7.132814,6.824216 6.914062,6.878904 C6.695311,6.933592 6.445314,6.960935 6.164062,6.960935 L5.296875,6.960935 L5.8125,4.218748 L6.820312,4.218748 Z M3.304688,9.749998 L4.757812,9.749998 L5.085938,8.015622 L6.328125,8.015622 C6.593751,8.015622 6.835936,7.999998 7.054688,7.968748 C7.273439,7.937497 7.468749,7.890623 7.640625,7.828122 C7.828126,7.781247 8,7.707029 8.15625,7.605466 C8.312501,7.503903 8.460937,7.390623 8.601562,7.265622 C8.726563,7.156247 8.835937,7.039061 8.929688,6.91406 C9.023438,6.789059 9.109375,6.664061 9.1875,6.53906 C9.265625,6.398434 9.332031,6.253904 9.386719,6.105466 C9.441407,5.957028 9.476562,5.804686 9.492188,5.648435 C9.570313,5.257808 9.582032,4.910155 9.527344,4.605466 C9.472656,4.300777 9.351563,4.039061 9.164062,3.82031 C8.976562,3.601559 8.73047,3.441404 8.425781,3.339841 C8.121092,3.238278 7.765627,3.187498 7.359375,3.187498 L4.59375,3.187498 L3.304688,9.749998 Z M10.57031,1.42968 L9.28125,8.015622 L10.71094,8.015622 L11.4375,4.242185 L12.58594,4.242185 C12.75781,4.242185 12.90625,4.25781 13.03125,4.28906 C13.15625,4.32031 13.24219,4.367185 13.28906,4.42968 C13.35156,4.47656 13.38672,4.554684 13.39453,4.66406 C13.40234,4.773436 13.39063,4.914059 13.35938,5.085935 L12.79688,8.015622 L14.25,8.015622 L14.83594,4.94531 C14.89844,4.632808 14.90625,4.36328 14.85938,4.136716 C14.8125,3.910153 14.71094,3.726561 14.55469,3.585935 C14.41406,3.445309 14.20313,3.343748 13.92188,3.281248 C13.64062,3.218747 13.30469,3.187498 12.91406,3.187498 L11.64844,3.187498 L12,1.42968 L10.57031,1.42968 Z M18,4.218748 C18.28125,4.218748 18.51172,4.242185 18.69141,4.28906 C18.87109,4.335935 19.00781,4.414059 19.10156,4.523435 C19.17969,4.617185 19.23047,4.753903 19.25391,4.933591 C19.27734,5.11328 19.2656256,5.320309 19.21875,5.554685 C19.17187,5.820311 19.10156,6.039059 19.00781,6.210935 C18.91406,6.382811 18.79688,6.523434 18.65625,6.63281 C18.5,6.742186 18.31641,6.824216 18.10547,6.878904 C17.89453,6.933592 17.64063,6.960935 17.34375,6.960935 L16.5,6.960935 L16.99219,4.218748 L18,4.218748 Z M14.50781,9.749998 L15.9375,9.749998 L16.28906,8.015622 L17.50781,8.015622 C17.77344,8.015622 18.01953,7.999998 18.24609,7.968748 C18.47266,7.937497 18.67187,7.890623 18.84375,7.828122 C19.01563,7.781247 19.17969,7.707029 19.33594,7.605466 C19.49219,7.503903 19.64844,7.390623 19.80469,7.265622 C19.91406,7.156247 20.01953,7.039061 20.12109,6.91406 C20.22266,6.789059 20.3125,6.664061 20.39062,6.53906 C20.45313,6.398434 20.51172,6.253904 20.56641,6.105466 C20.62109,5.957028 20.66406,5.804686 20.69531,5.648435 C20.77344,5.257808 20.78516,4.910155 20.73047,4.605466 C20.67578,4.300777 20.55469,4.039061 20.36719,3.82031 C20.17969,3.601559 19.9336,3.441404 19.62891,3.339841 C19.32422,3.238278 18.96094,3.187498 18.53906,3.187498 L15.79688,3.187498 L14.50781,9.749998 Z" id="icon-php" fill="#000000"></path>
    </g>
</svg>