<?xml version="1.0" encoding="UTF-8"?>
<svg width="15px" height="20px" viewBox="0 0 15 20" version="1.1" xmlns="http://www.w3.org/2000/svg" xmlns:xlink="http://www.w3.org/1999/xlink">
    <title>icon-java</title>
    <g id="Branding-Types" stroke="none" stroke-width="1" fill="none" fill-rule="evenodd">
        <path d="M4.60125006,14.90625 C4.60125006,14.90625 4.53093806,14.984374 4.39031306,15.140625 C4.24968706,15.296876 4.49187206,15.40625 5.11687506,15.46875 C5.88250406,15.5625 6.53093506,15.597656 7.06218706,15.574219 C7.59344006,15.550781 8.28093306,15.460938 9.12468706,15.304688 C9.12468706,15.304688 9.22234306,15.363281 9.41765606,15.480469 C9.61297006,15.597657 9.86687306,15.710937 10.1793751,15.820312 C9.22624506,16.226565 8.26141106,16.445312 7.28484406,16.476562 C6.30827606,16.507813 5.49969106,16.441407 4.85906306,16.277344 C4.21843406,16.11328 3.82781306,15.894533 3.68718706,15.621094 C3.54656206,15.347655 3.85124606,15.109376 4.60125006,14.90625 Z M4.13250006,12.796875 C4.13250006,12.796875 4.04656306,12.902343 3.87468706,13.113281 C3.70281206,13.32422 3.93718406,13.46875 4.57781306,13.546875 C5.39031706,13.625 6.17155906,13.65625 6.92156306,13.640625 C7.67156606,13.625 8.60905706,13.507814 9.73406306,13.289062 C9.73406306,13.289062 9.80437406,13.347656 9.94500006,13.464844 C10.0856261,13.582032 10.2731241,13.6875 10.5075001,13.78125 C9.36686906,14.109377 8.24188106,14.292969 7.13250006,14.332031 C6.02311906,14.371094 5.10906606,14.324219 4.39031306,14.191406 C3.67155906,14.058593 3.24578206,13.859376 3.11296906,13.59375 C2.98015606,13.328124 3.31999606,13.062501 4.13250006,12.796875 Z M8.02312506,9.21094 C7.24187106,8.30468 6.98015506,7.51953 7.23796906,6.85547 C7.49578306,6.1914 7.93718406,5.64453 8.56218706,5.21484 C9.18719106,4.78515 9.82780906,4.46484 10.4840631,4.25391 C11.1403151,4.04297 11.4684351,3.9375 11.4684351,3.9375 C9.37467706,5.15626 8.32390606,6.04297 8.31609406,6.59766 C8.30828106,7.15235 8.55437206,7.78906 9.05437506,8.50781 C9.60125306,9.273441 9.52703506,9.921872 8.83171906,10.453125 C8.13640306,10.984378 7.78875006,11.25 7.78875006,11.25 C7.78875006,11.25 7.94499806,11.042971 8.25750006,10.628906 C8.57000206,10.214842 8.49187706,9.74219 8.02312506,9.21094 Z M13.0153151,16.476562 C13.5153151,16.695314 13.5309351,16.953124 13.0621851,17.25 C12.5934351,17.546876 11.7848451,17.796874 10.6364061,18 C9.48796306,18.203126 8.07391506,18.3203123 6.39421906,18.3515625 C4.71452306,18.3828127 2.91376006,18.2421891 0.991875064,17.929688 C0.273121464,17.820312 -0.0549999364,17.652345 0.00750006359,17.425781 C0.0700003636,17.199218 0.300466864,16.988282 0.698906264,16.792969 C1.09734576,16.597655 1.55046626,16.453125 2.05828106,16.359375 C2.56609606,16.265625 2.91374906,16.281249 3.10125006,16.40625 C3.10125006,16.40625 3.04265706,16.410156 2.92546906,16.417969 C2.80828106,16.425781 2.64812606,16.453125 2.44500006,16.5 C2.24187406,16.53125 1.93718956,16.632812 1.53093756,16.804688 C1.12468556,16.976563 1.09343586,17.140624 1.43718756,17.296875 C1.90593986,17.500001 2.64030806,17.644531 3.64031306,17.730469 C4.64031706,17.816407 5.69890106,17.851563 6.81609406,17.835938 C7.93328706,17.820312 9.01140106,17.761719 10.0504691,17.660156 C11.0895351,17.558593 11.8746851,17.429688 12.4059351,17.273438 C12.9840651,17.101562 13.2301551,16.925782 13.1442151,16.746094 C13.0582851,16.566405 13.0153151,16.476562 13.0153151,16.476562 Z M4.95281306,10.617188 C4.95281306,10.617188 4.46453606,10.765624 3.48796906,11.0625 C2.51140106,11.359376 2.58561906,11.585937 3.71062506,11.742188 C4.19500206,11.804688 4.86687106,11.832031 5.72625006,11.824219 C6.58562906,11.816406 7.46062106,11.773438 8.35125006,11.695312 C9.07000406,11.632812 9.73405906,11.554688 10.3434371,11.460938 C10.9528161,11.367187 11.2574951,11.320312 11.2574951,11.320312 C11.2574951,11.320312 11.1559351,11.367187 10.9528131,11.460938 C10.7496861,11.554688 10.5543761,11.664062 10.3668751,11.789062 C9.47624606,12.023439 8.44500606,12.175781 7.27312506,12.246094 C6.10124406,12.316407 5.03484906,12.324219 4.07390606,12.269531 C3.11296406,12.214843 2.39031506,12.10547 1.90593756,11.941406 C1.42156016,11.777343 1.42156016,11.570314 1.90593756,11.320312 C2.74969206,10.91406 3.46843506,10.695313 4.06218706,10.664062 C4.65594006,10.632812 4.95281306,10.617188 4.95281306,10.617188 Z M11.2340651,14.132812 C13.0465751,13.179683 13.7770351,12.335941 13.4254651,11.601562 C13.0739051,10.867184 12.6012551,10.562499 12.0074951,10.6875 C11.8668751,10.71875 11.7653151,10.742187 11.7028151,10.757812 C11.6403151,10.773438 11.6090651,10.78125 11.6090651,10.78125 C11.6090651,10.78125 11.6324951,10.753907 11.6793751,10.699219 C11.7262551,10.644531 11.8043751,10.59375 11.9137551,10.546875 C13.0700051,10.140623 13.8395251,10.492182 14.2223451,11.601562 C14.6051551,12.710943 13.5856351,13.585934 11.1637551,14.226562 C11.1637551,14.226562 11.1754651,14.214844 11.1989051,14.191406 C11.2223451,14.167969 11.2340651,14.148438 11.2340651,14.132812 Z M9.05437506,0 C9.05437506,0 9.22624806,0.46093 9.57000006,1.38281 C9.91375206,2.30469 9.10907206,3.53905 7.15593706,5.08594 C5.59343006,6.32032 5.11296606,7.34375 5.71453106,8.15625 C6.31609706,8.96875 6.79656106,9.773434 7.15593706,10.570312 C6.24968306,9.742183 5.53094006,8.96094 4.99968706,8.22656 C4.46843506,7.49218 4.42937306,6.78907 4.88250006,6.11719 C5.21062706,5.63281 5.65202806,5.1875 6.20671906,4.78125 C6.76140906,4.375 7.28484106,3.94922 7.77703106,3.50391 C8.26922106,3.05859 8.65593606,2.5625 8.93718706,2.01563 C9.21843906,1.46875 9.25750106,0.79688 9.05437506,0 Z M5.30437506,19.21875 C4.16374406,19.1406246 3.42547006,19.0351569 3.08953106,18.9023438 C2.75359206,18.7695306 2.58562506,18.703125 2.58562506,18.703125 C3.11687806,18.7968755 3.73796506,18.8671873 4.44890606,18.9140625 C5.15984706,18.960938 5.90202706,18.9804688 6.67546906,18.9726562 C7.44891006,18.9648437 8.23796506,18.9296878 9.04265606,18.8671875 C9.84734806,18.8046872 10.6246841,18.7031257 11.3746851,18.5625 C12.6871951,18.3124988 13.4918751,18.066407 13.7887551,17.824219 C14.0856251,17.58203 14.2340651,17.460938 14.2340651,17.460938 C14.2028151,17.86719 13.8825051,18.199217 13.2731251,18.4570312 C12.6637451,18.714845 11.9137551,18.9101556 11.0231251,19.0429688 C10.1324961,19.1757819 9.17547406,19.2499999 8.15203106,19.265625 C7.12858906,19.2812501 6.17937906,19.2656252 5.30437506,19.21875 Z" id="icon-java" fill="#000000"></path>
    </g>
</svg>