<?xml version="1.0" encoding="UTF-8"?>
<svg width="20px" height="20px" viewBox="0 0 20 20" version="1.1" xmlns="http://www.w3.org/2000/svg" xmlns:xlink="http://www.w3.org/1999/xlink">
    <title>icon-communication</title>
    <g id="Branding-Types" stroke="none" stroke-width="1" fill="none" fill-rule="evenodd">
        <path d="M20.01562,9.1875 C20.01562,7.92187 19.75391,6.73048 19.23047,5.61328 C18.70703,4.49609 17.99219,3.51954 17.08594,2.6836 C16.17968,1.84765 15.11719,1.19141 13.89844,0.71485 C12.67968,0.23828 11.38282,0 10.00781,0 C8.632806,0 7.335944,0.23828 6.117188,0.71485 C4.898431,1.19141 3.835942,1.84765 2.929688,2.6836 C2.023433,3.51954 1.308596,4.49609 0.7851562,5.61328 C0.2617161,6.73048 0,7.92187 0,9.1875 C0,10 0.1093739,10.777343 0.328125,11.519534 C0.5468761,12.261725 0.8515605,12.960937 1.242188,13.61719 C1.632814,14.273443 2.105466,14.878906 2.660156,15.433596 C3.214847,15.988287 3.828122,16.46875 4.5,16.875002 L3,19.99219 C3,19.99219 3.585932,19.9648465 4.757812,19.9101588 C5.929693,19.855471 7.320304,19.6679729 8.929688,19.3476588 C10.53907,19.0273446 12.17968,18.523443 13.85156,17.83594 C15.52345,17.148437 16.86718,16.164071 17.88281,14.882815 L17.85938,14.882815 C18.53125,14.101561 19.05859,13.22657 19.44141,12.257815 C19.82422,11.28906 20.01562,10.265633 20.01562,9.1875 Z" id="icon-communication" fill="#000000"></path>
    </g>
</svg>