<svg xmlns="http://www.w3.org/2000/svg" viewBox="0 0 54.6 61"><defs><style>.cls-1{fill:#fff;}</style></defs><g id="Layer_2" data-name="Layer 2"><g id="Layer_1-2" data-name="Layer 1"><path d="M54.6,16.09V44a9.65,9.65,0,0,1-2,2.17C45.07,50.49,37.45,54.67,29.9,59A4.44,4.44,0,0,1,25,59C17.77,54.84,10.57,50.72,3.27,46.8a5,5,0,0,1-3-5c.1-8,.07-16.08,0-24.11a4.34,4.34,0,0,1,2.46-4.29C10.74,9,18.7,4.47,26.67,0h1.52C36,4.39,43.88,8.75,51.67,13.22A16.2,16.2,0,0,1,54.6,16.09ZM44.36,19.92c-3.07-6.28-12-11.33-20.83-9.42a19.9,19.9,0,0,0-16,20.09c.1,9.16,7,17.12,16.27,18.91,8.73,1.69,17.79-3.31,20.7-9.71l-8.4-4.62c-4.56,5.46-10.47,6.43-15.05,2.55A10,10,0,0,1,26.7,20c4-.27,7,1.55,9.32,4.7Z"/><path class="cls-1" d="M26.67,0c-8,4.47-15.93,9-23.93,13.38A4.34,4.34,0,0,0,.28,17.67c0,8,.08,16.07,0,24.11a5,5,0,0,0,3,5c7.3,3.92,14.5,8,21.69,12.17a4.44,4.44,0,0,0,4.94,0c7.55-4.31,15.17-8.49,22.72-12.8a9.65,9.65,0,0,0,2-2.17V61H0V0Z"/><path class="cls-1" d="M54.6,16.09a16.2,16.2,0,0,0-2.93-2.87C43.88,8.75,36,4.39,28.19,0H54.6Z"/><path class="cls-1" d="M44.36,19.92,36,24.72c-2.34-3.15-5.33-5-9.32-4.7a10,10,0,0,0-5.62,17.7c4.58,3.88,10.49,2.91,15.05-2.55l8.4,4.62c-2.91,6.4-12,11.4-20.7,9.71C14.56,47.71,7.66,39.75,7.56,30.59a19.9,19.9,0,0,1,16-20.09C32.4,8.59,41.29,13.64,44.36,19.92Z"/></g></g></svg>