<svg xmlns="http://www.w3.org/2000/svg" width="30" height="30" viewBox="0 0 30 30">
    <g fill="none" fill-rule="evenodd">
        <g>
            <g>
                <g>
                    <path d="M0 0H30V30H0z" transform="translate(-858 -1757) translate(120 1304) translate(738 453)"/>
                    <g fill="#44D7B6">
                        <path d="M13.65 0h.605c.354.115.7.253 1.035.411 3.667 2 7.333 4.008 11 6.024.833.417 1.347 1.256 1.325 2.163V20.55c.05 1.054-.551 2.037-1.53 2.502-3.563 1.935-7.125 3.883-10.685 5.845-.898.544-2.037.544-2.935 0-3.56-1.955-7.133-3.91-10.72-5.865-.946-.465-1.53-1.417-1.5-2.443V8.976c-.051-1.155.619-2.227 1.7-2.72 1.725-.933 3.44-1.935 5.185-2.869C9.295 2.245 11.5 1.127 13.65 0zm6.445 19.273c-.675-.388-1.365-.74-2-1.162-.191-.164-.442-.248-.698-.233-.255.016-.493.13-.662.316-1.53 1.197-3.692 1.275-5.31.193-1.642-1.05-2.407-2.998-1.9-4.839.457-1.845 2.095-3.191 4.05-3.329 1.411-.095 2.795.416 3.78 1.399l2.755-1.558c-1.675-2.458-5.33-3.625-8.395-2.715-3.354.986-5.633 3.997-5.592 7.39.04 3.392 2.39 6.35 5.767 7.262 3.11.842 6.715-.358 8.205-2.724zm2.95-2.662l.1 1.215h1.215l.07-1.215 1.19-.072v-1.195l-1.17-.068V14.1l1.155-.068v-1.21l-1.18-.067-.06-1.19h-1.25l-.065 1.185h-1.23l-.09-1.195H20.5l-.065 1.21-1.18.062v1.205l1.18.087v1.113c-1.405.199-1.405.203-1.13 1.321l1.125.063.07 1.2h1.22l.095-1.205h1.23z" transform="translate(-858 -1757) translate(120 1304) translate(738 453) translate(1)"/>
                        <path d="M21.83 14.1L23.035 14.1 23.035 15.256 21.83 15.256z" transform="translate(-858 -1757) translate(120 1304) translate(738 453) translate(1)"/>
                    </g>
                </g>
            </g>
        </g>
    </g>
</svg>
