<svg xmlns="http://www.w3.org/2000/svg" viewBox="0 0 54.95 49.06"><defs><style>.cls-1{fill:#fff;}</style></defs><g id="Layer_2" data-name="Layer 2"><g id="Layer_1-2" data-name="Layer 1"><path class="cls-1" d="M55,49.06H0V0H55ZM35.51.35a6.38,6.38,0,0,0-1.74,1A18.84,18.84,0,0,0,31.7,4.05c-1.74,2.5-3.36,5.09-5.22,7.5a7.51,7.51,0,0,1-3.16,2.56,15.4,15.4,0,0,0-7.09,5.54,3.73,3.73,0,0,1-1.5,1.13c-4.41,1.87-8.85,3.67-13.27,5.5-1.32.55-1.44,1.27-.33,2.08,3.49,2.53,7,5.06,10.51,7.52a2,2,0,0,0,1.63.17c2.18-.9,2.86-.79,4.23,1.11A15.55,15.55,0,0,1,19,39.65c1.25,2.69,2.47,5.39,3.6,8.13.42,1,1.06,1.41,2,.95a24.64,24.64,0,0,0,5.1-3c2.13-1.86,3.91-4.12,5.88-6.16a41.7,41.7,0,0,1,4.13-4,4.59,4.59,0,0,1,5.78-.11c.9.61,1.71,1.37,2.55,2.07,1.48,1.27,2.93,2.57,4.46,3.78a1.35,1.35,0,0,0,1.28.12c.25-.22.21-.85.2-1.3a2.44,2.44,0,0,0-.29-.79c-1.64-4-3.39-7.93-4.89-12-2.59-6.93-5-13.93-7.56-20.86a27.84,27.84,0,0,0-2.37-4.52A3.74,3.74,0,0,0,35.51.35Z"/><path d="M35.51.35a3.74,3.74,0,0,1,3.36,1.7,27.84,27.84,0,0,1,2.37,4.52c2.57,6.93,5,13.93,7.56,20.86,1.5,4,3.25,8,4.89,12a2.44,2.44,0,0,1,.29.79c0,.45.05,1.08-.2,1.3a1.35,1.35,0,0,1-1.28-.12c-1.53-1.21-3-2.51-4.46-3.78-.84-.7-1.65-1.46-2.55-2.07a4.59,4.59,0,0,0-5.78.11,41.7,41.7,0,0,0-4.13,4c-2,2-3.75,4.3-5.88,6.16a24.64,24.64,0,0,1-5.1,3c-.91.46-1.55.06-2-.95C21.5,45,20.28,42.34,19,39.65a15.55,15.55,0,0,0-1.53-2.49c-1.37-1.9-2.05-2-4.23-1.11a2,2,0,0,1-1.63-.17c-3.53-2.46-7-5-10.51-7.52-1.11-.81-1-1.53.33-2.08,4.42-1.83,8.86-3.63,13.27-5.5a3.73,3.73,0,0,0,1.5-1.13,15.4,15.4,0,0,1,7.09-5.54,7.51,7.51,0,0,0,3.16-2.56c1.86-2.41,3.48-5,5.22-7.5a18.84,18.84,0,0,1,2.07-2.69A6.38,6.38,0,0,1,35.51.35ZM50.59,37.29c-.2-.53-.27-.72-.33-.9C48,30.32,45.81,24.25,43.55,18.2q-2.38-6.4-4.89-12.75a9.81,9.81,0,0,0-1.27-2.22q-1.39-1.9-2.67,0a12,12,0,0,0-1,2c-1.48,3.47-2.83,7-4.42,10.43-3.12,6.7-6.51,13.23-12.39,18,0,0,0,.14,0,.16,4.07,3.43,5.34,8.44,7.57,13.13a21,21,0,0,0,3.06-1.84c1.7-1.5,3.3-3.13,4.88-4.76,1.81-1.87,3.43-3.94,5.37-5.66C40.82,32,44.15,32,47.4,34.5,48.42,35.29,49.35,36.2,50.59,37.29ZM3.22,27.58c3.07,2.2,5.91,4.23,8.72,6.3a1.14,1.14,0,0,0,1.52-.09,28.6,28.6,0,0,0,6.82-6.21c.37-.46.7-.95,1.08-1.46l-1.58-1.19c-1.18-.87-2.29-2.29-3.55-2.44s-2.79.89-4.17,1.45C9.18,25.11,6.31,26.3,3.22,27.58ZM17.61,21l4.95,3.71,6.38-12.41-.34-.19c-.25.3-.5.6-.76.89a9.23,9.23,0,0,1-4.13,3.09C21.05,16.82,19.33,18.72,17.61,21Z"/><path class="cls-1" d="M50.59,37.29c-1.24-1.09-2.17-2-3.19-2.79-3.25-2.49-6.58-2.5-9.65.22-1.94,1.72-3.56,3.79-5.37,5.66C30.8,42,29.2,43.64,27.5,45.14A21,21,0,0,1,24.44,47c-2.23-4.69-3.5-9.7-7.57-13.13,0,0,0-.12,0-.16,5.88-4.8,9.27-11.33,12.39-18,1.59-3.42,2.94-7,4.42-10.43a12,12,0,0,1,1-2q1.28-1.95,2.67,0a9.81,9.81,0,0,1,1.27,2.22q2.51,6.34,4.89,12.75c2.26,6.05,4.47,12.12,6.71,18.19C50.32,36.57,50.39,36.76,50.59,37.29ZM42.5,31C42.17,27.1,36.68,4.76,35.82,4c-.16.6-.33,1.12-.45,1.66a215.31,215.31,0,0,1-6.46,24.37c-1.18,3.47-3.21,6-6.79,7.08-.06,0-.09.12-.14.19l3.4,7.42c1.3-1.14,2.56-2.09,3.64-3.22,1.93-2,3.73-4.19,5.63-6.26C36.76,33,39.15,31.13,42.5,31Z"/><path class="cls-1" d="M3.22,27.58c3.09-1.28,6-2.47,8.84-3.64,1.38-.56,2.85-1.61,4.17-1.45s2.37,1.57,3.55,2.44l1.58,1.19c-.38.51-.71,1-1.08,1.46a28.6,28.6,0,0,1-6.82,6.21,1.14,1.14,0,0,1-1.52.09C9.13,31.81,6.29,29.78,3.22,27.58Z"/><path class="cls-1" d="M17.61,21c1.72-2.24,3.44-4.14,6.1-4.91A9.23,9.23,0,0,0,27.84,13c.26-.29.51-.59.76-.89l.34.19L22.56,24.67Z"/><path d="M42.5,31c-3.35.18-5.74,2-7.85,4.31-1.9,2.07-3.7,4.23-5.63,6.26-1.08,1.13-2.34,2.08-3.64,3.22L22,37.32c.05-.07.08-.17.14-.19,3.58-1.09,5.61-3.61,6.79-7.08A215.31,215.31,0,0,0,35.37,5.68c.12-.54.29-1.06.45-1.66C36.68,4.76,42.17,27.1,42.5,31Z"/></g></g></svg>