<?xml version="1.0" encoding="UTF-8"?>
<svg width="19px" height="20px" viewBox="0 0 19 20" version="1.1" xmlns="http://www.w3.org/2000/svg" xmlns:xlink="http://www.w3.org/1999/xlink">
    <title>icon-cog</title>
    <g id="Branding-Types" stroke="none" stroke-width="1" fill="none" fill-rule="evenodd">
        <path d="M16.8359401,11.203128 C16.8515601,11.140627 16.8632801,11.078128 16.8710901,11.015628 C16.8789101,10.953127 16.8828101,10.890628 16.8828101,10.828128 L16.9062501,10.781252 C16.9062501,10.765627 16.9062501,10.750003 16.9062501,10.734378 C16.9062501,10.718752 16.9062501,10.703128 16.9062501,10.687502 C16.9218801,10.562502 16.9296901,10.445316 16.9296901,10.33594 C16.9296901,10.226564 16.9296901,10.109378 16.9296901,9.98438 C16.9296901,9.875 16.9296901,9.76172 16.9296901,9.64453 C16.9296901,9.52735 16.9218801,9.41407 16.9062501,9.30469 C16.9062501,9.28906 16.9062501,9.27344 16.9062501,9.25781 C16.9062501,9.24219 16.9062501,9.22657 16.9062501,9.21094 L16.8828101,9.16407 C16.8828101,9.10156 16.8789101,9.03516 16.8710901,8.96485 C16.8632801,8.89453 16.8515601,8.82813 16.8359401,8.76563 L18.8984401,7.10157 C18.9453101,7.05469 18.9765601,7.00391 18.9921901,6.94922 C19.0078101,6.89453 19,6.84375 18.9687501,6.79688 L16.9765601,3.21094 C16.9453101,3.16406 16.9023401,3.12891 16.8476601,3.10547 C16.7929701,3.08203 16.7343801,3.08594 16.6718701,3.11719 L14.2109401,4.10157 C14.1953101,4.10157 14.1796901,4.09375 14.1640601,4.07813 C14.1484401,4.0625 14.1328101,4.05469 14.1171901,4.05469 L13.9531301,3.91407 C13.9375001,3.89844 13.9140601,3.87891 13.8828101,3.85547 C13.8515601,3.83203 13.8203101,3.80469 13.7890601,3.77344 C13.7734401,3.77344 13.7578101,3.76563 13.7421901,3.75 C13.7265601,3.73438 13.7109401,3.72657 13.6953101,3.72657 L13.6484401,3.67969 C13.3984401,3.52344 13.1484401,3.375 12.8984401,3.23438 C12.6484401,3.09375 12.3906301,2.97657 12.1250001,2.88281 L11.7500001,0.21094 C11.7500001,0.14844 11.7265601,0.09766 11.6796901,0.0586 C11.6328101,0.01953 11.5781301,0 11.5156301,0 L7.48437505,0 C7.42187505,0 7.36718805,0.01953 7.32031205,0.0586 C7.27343705,0.09766 7.25000005,0.14844 7.25000005,0.21094 L6.87500005,2.88281 C6.60937405,2.97657 6.35156405,3.09375 6.10156205,3.23438 C5.85156105,3.375 5.60156405,3.52344 5.35156205,3.67969 L5.30468805,3.72657 C5.28906205,3.72657 5.27343805,3.73438 5.25781205,3.75 C5.24218705,3.76563 5.22656305,3.77344 5.21093805,3.77344 C5.17968705,3.80469 5.15234405,3.82813 5.12890605,3.84375 C5.10546905,3.85938 5.07812505,3.88281 5.04687505,3.91407 L4.88281205,4.05469 C4.86718705,4.05469 4.85156305,4.0625 4.83593805,4.07813 C4.82031205,4.09375 4.80468805,4.10157 4.78906205,4.10157 L2.32812505,3.11719 C2.26562505,3.08594 2.20703205,3.08203 2.15234405,3.10547 C2.09765605,3.12891 2.05468805,3.17188 2.02343805,3.23438 L0.0312500514,6.79688 C-1.97533154e-08,6.84375 -0.00781252864,6.89453 0.00781255136,6.94922 C0.0234376294,7.00391 0.0546873214,7.05469 0.101562551,7.10157 L2.16406205,8.76563 C2.14843705,8.82813 2.13671905,8.89063 2.12890605,8.95313 C2.12109405,9.01563 2.11718805,9.07813 2.11718805,9.14063 L2.11718805,9.21094 C2.10156205,9.22657 2.09375005,9.24219 2.09375005,9.25781 C2.09375005,9.27344 2.09375005,9.28906 2.09375005,9.30469 C2.07812505,9.41407 2.07031205,9.52735 2.07031205,9.64453 C2.07031205,9.76172 2.07031205,9.875 2.07031205,9.98438 C2.07031205,10.109378 2.07031205,10.226564 2.07031205,10.33594 C2.07031205,10.445316 2.07812505,10.562502 2.09375005,10.687502 C2.09375005,10.703128 2.09375005,10.718752 2.09375005,10.734378 C2.09375005,10.750003 2.10156205,10.765627 2.11718805,10.781252 L2.11718805,10.828128 C2.11718805,10.890628 2.12109405,10.953127 2.12890605,11.015628 C2.13671905,11.078128 2.14843705,11.140627 2.16406205,11.203128 L0.101562551,12.890628 C0.0546873214,12.921878 0.0234376294,12.968752 0.00781255136,13.031252 C-0.00781252864,13.093753 -1.97533154e-08,13.14844 0.0312500514,13.195315 L2.02343805,16.757815 C2.05468805,16.820315 2.09765605,16.859377 2.15234405,16.875002 C2.20703205,16.890628 2.26562505,16.890628 2.32812505,16.875002 L4.78906205,15.86719 C4.80468805,15.882815 4.82031205,15.894534 4.83593805,15.902346 C4.85156305,15.910159 4.85937505,15.921877 4.85937505,15.937502 L5.04687505,16.078128 C5.06250005,16.093753 5.08593705,16.113284 5.11718805,16.136721 C5.14843805,16.160159 5.17968705,16.17969 5.21093805,16.195315 C5.22656305,16.21094 5.23828105,16.222659 5.24609405,16.230471 C5.25390605,16.238284 5.26562505,16.250002 5.28125005,16.265628 L5.32812505,16.289065 C5.57812605,16.460941 5.83203005,16.613283 6.08984405,16.746096 C6.34765805,16.878909 6.60937405,17 6.87500005,17.109378 L7.25000005,19.7812525 C7.25000005,19.8437528 7.27343705,19.8945336 7.32031205,19.9335963 C7.36718805,19.9726589 7.42187505,19.99219 7.48437505,19.99219 L11.5156301,19.99219 C11.5781301,19.99219 11.6328101,19.9726589 11.6796901,19.9335963 C11.7265601,19.8945336 11.7500001,19.8437528 11.7500001,19.7812525 L12.1250001,17.109378 C12.3906301,17 12.6523401,16.878909 12.9101601,16.746096 C13.1679701,16.613283 13.4218701,16.460941 13.6718701,16.289065 L13.7187501,16.265628 C13.7343801,16.250002 13.7460901,16.238284 13.7539101,16.230471 C13.7617201,16.222659 13.7734401,16.21094 13.7890601,16.195315 C13.8203101,16.17969 13.8515601,16.160159 13.8828101,16.136721 C13.9140601,16.113284 13.9453101,16.093753 13.9765601,16.078128 L14.1406301,15.937502 C14.1406301,15.921877 14.1484401,15.910159 14.1640601,15.902346 C14.1796901,15.894534 14.1953101,15.882815 14.2109401,15.86719 L16.6718701,16.875002 C16.7343801,16.890628 16.7929701,16.890628 16.8476601,16.875002 C16.9023401,16.859377 16.9453101,16.820315 16.9765601,16.757815 L18.9687501,13.195315 C19,13.14844 19.0078101,13.093753 18.9921901,13.031252 C18.9765601,12.968752 18.9453101,12.921878 18.8984401,12.890628 L16.8359401,11.203128 Z M13.0156301,9.98438 C13.0156301,10.953132 12.6718801,11.781249 11.9843701,12.468752 C11.2968701,13.156256 10.4687501,13.500002 9.50000005,13.500002 C8.53124505,13.500002 7.70703505,13.156256 7.02734405,12.468752 C6.34765305,11.781249 6.00781205,10.953132 6.00781205,9.98438 C6.00781205,9.03125 6.34765305,8.21094 7.02734405,7.52344 C7.70703505,6.83594 8.53124505,6.49219 9.50000005,6.49219 C10.4687501,6.49219 11.2968701,6.83594 11.9843701,7.52344 C12.6718801,8.21094 13.0156301,9.03125 13.0156301,9.98438 Z" id="icon-cog" fill="#000000"></path>
    </g>
</svg>