<svg xmlns="http://www.w3.org/2000/svg" width="30" height="30" viewBox="0 0 30 30">
    <g fill="none" fill-rule="evenodd">
        <g>
            <g>
                <g>
                    <path d="M0 0H30V30H0z" transform="translate(-552 -1757) translate(120 1304) translate(432 453)"/>
                    <g fill="#44D7B6">
                        <path d="M27.3 8.045V22c-.276.41-.613.777-1 1.085-3.765 2.16-7.575 4.25-11.35 6.415-.743.491-1.707.491-2.45 0-3.615-2.08-7.215-4.14-10.865-6.1-.984-.425-1.588-1.431-1.5-2.5.05-4 .035-8.04 0-12.055-.077-.902.413-1.756 1.23-2.145C5.37 4.5 9.35 2.235 13.335 0h.76C18 2.195 21.94 4.375 25.835 6.61c.547.414 1.04.897 1.465 1.435zM22.18 9.96c-1.535-3.14-6-5.665-10.415-4.71-4.76.95-8.14 5.194-8 10.045.05 4.58 3.5 8.56 8.135 9.455 4.365.845 8.895-1.655 10.35-4.855l-4.2-2.31c-2.28 2.73-5.235 3.215-7.525 1.275-1.589-1.298-2.223-3.436-1.6-5.39.624-1.955 2.378-3.33 4.425-3.47 2-.135 3.5.775 4.66 2.35l4.17-2.39z" transform="translate(-552 -1757) translate(120 1304) translate(432 453) translate(1)"/>
                    </g>
                </g>
            </g>
        </g>
    </g>
</svg>
